<mxfile host="app.diagrams.net" modified="2024-04-06T17:39:29.699Z" agent="Mozilla/5.0 (Windows NT 10.0; Win64; x64) AppleWebKit/537.36 (KHTML, like Gecko) Chrome/123.0.0.0 Safari/537.36" etag="VG4prODab9eRnNxPgNwn" version="24.2.2" type="device">
  <diagram name="PÃ¡gina-1" id="g46RnRNWz_YeeUfpbtGP">
    <mxGraphModel dx="1434" dy="746" grid="1" gridSize="10" guides="1" tooltips="1" connect="1" arrows="1" fold="1" page="1" pageScale="1" pageWidth="827" pageHeight="1169" math="0" shadow="0">
      <root>
        <mxCell id="0" />
        <mxCell id="1" parent="0" />
        <mxCell id="UDgORrIAMkUc-_xgwFes-1" value="" style="swimlane;startSize=0;fillColor=#dae8fc;strokeColor=#6c8ebf;strokeWidth=5;" parent="1" vertex="1">
          <mxGeometry x="10" y="140" width="810" height="780" as="geometry" />
        </mxCell>
        <mxCell id="UDgORrIAMkUc-_xgwFes-12" value="Servicios Compuestos" style="swimlane;horizontal=0;whiteSpace=wrap;html=1;" parent="UDgORrIAMkUc-_xgwFes-1" vertex="1">
          <mxGeometry x="110" y="130" width="590" height="160" as="geometry" />
        </mxCell>
        <mxCell id="UDgORrIAMkUc-_xgwFes-13" value="BS-CustomerManager" style="rounded=1;whiteSpace=wrap;html=1;" parent="UDgORrIAMkUc-_xgwFes-12" vertex="1">
          <mxGeometry x="80" y="70" width="130" height="60" as="geometry" />
        </mxCell>
        <mxCell id="UDgORrIAMkUc-_xgwFes-57" value="" style="endArrow=none;dashed=1;html=1;rounded=0;strokeColor=#006600;strokeWidth=2;" parent="UDgORrIAMkUc-_xgwFes-12" edge="1">
          <mxGeometry width="50" height="50" relative="1" as="geometry">
            <mxPoint x="90" y="40" as="sourcePoint" />
            <mxPoint x="90" y="70" as="targetPoint" />
          </mxGeometry>
        </mxCell>
        <mxCell id="UDgORrIAMkUc-_xgwFes-48" value="BS-LicenseManager" style="rounded=1;whiteSpace=wrap;html=1;" parent="UDgORrIAMkUc-_xgwFes-12" vertex="1">
          <mxGeometry x="380" y="70" width="130" height="60" as="geometry" />
        </mxCell>
        <mxCell id="UDgORrIAMkUc-_xgwFes-15" value="BS-LicenseManager" style="rounded=1;whiteSpace=wrap;html=1;" parent="UDgORrIAMkUc-_xgwFes-12" vertex="1">
          <mxGeometry x="370" y="60" width="130" height="60" as="geometry" />
        </mxCell>
        <mxCell id="UDgORrIAMkUc-_xgwFes-58" value="" style="endArrow=none;dashed=1;html=1;rounded=0;strokeColor=#006600;strokeWidth=2;" parent="UDgORrIAMkUc-_xgwFes-12" edge="1">
          <mxGeometry width="50" height="50" relative="1" as="geometry">
            <mxPoint x="400" y="-40" as="sourcePoint" />
            <mxPoint x="400" y="30" as="targetPoint" />
          </mxGeometry>
        </mxCell>
        <mxCell id="UDgORrIAMkUc-_xgwFes-60" value="" style="endArrow=none;dashed=1;html=1;rounded=0;strokeColor=#006600;strokeWidth=2;entryX=0.407;entryY=-0.04;entryDx=0;entryDy=0;entryPerimeter=0;" parent="UDgORrIAMkUc-_xgwFes-12" target="UDgORrIAMkUc-_xgwFes-28" edge="1">
          <mxGeometry width="50" height="50" relative="1" as="geometry">
            <mxPoint x="280" y="40" as="sourcePoint" />
            <mxPoint x="280" y="350" as="targetPoint" />
          </mxGeometry>
        </mxCell>
        <mxCell id="UDgORrIAMkUc-_xgwFes-61" value="BS-LicenseManager" style="rounded=1;whiteSpace=wrap;html=1;" parent="UDgORrIAMkUc-_xgwFes-12" vertex="1">
          <mxGeometry x="360" y="50" width="130" height="60" as="geometry" />
        </mxCell>
        <mxCell id="UDgORrIAMkUc-_xgwFes-62" value="" style="endArrow=none;dashed=1;html=1;rounded=0;strokeColor=#006600;strokeWidth=2;" parent="UDgORrIAMkUc-_xgwFes-12" edge="1">
          <mxGeometry width="50" height="50" relative="1" as="geometry">
            <mxPoint x="480" y="40" as="sourcePoint" />
            <mxPoint x="480" y="70" as="targetPoint" />
          </mxGeometry>
        </mxCell>
        <mxCell id="UDgORrIAMkUc-_xgwFes-6" value="Eureka&lt;br&gt;Server" style="ellipse;whiteSpace=wrap;html=1;aspect=fixed;dashed=1;strokeWidth=3;strokeColor=#2B7901;fontStyle=1" parent="UDgORrIAMkUc-_xgwFes-1" vertex="1">
          <mxGeometry x="10" y="120" width="90" height="90" as="geometry" />
        </mxCell>
        <mxCell id="UDgORrIAMkUc-_xgwFes-5" value="Config&lt;br&gt;Server" style="ellipse;whiteSpace=wrap;html=1;aspect=fixed;dashed=1;strokeWidth=3;strokeColor=#2B7901;fontStyle=1" parent="UDgORrIAMkUc-_xgwFes-1" vertex="1">
          <mxGeometry x="710" y="120" width="90" height="90" as="geometry" />
        </mxCell>
        <mxCell id="UDgORrIAMkUc-_xgwFes-16" value="Servicios Core" style="swimlane;horizontal=0;whiteSpace=wrap;html=1;" parent="UDgORrIAMkUc-_xgwFes-1" vertex="1">
          <mxGeometry x="20" y="290" width="770" height="460" as="geometry" />
        </mxCell>
        <mxCell id="UDgORrIAMkUc-_xgwFes-20" value="Customer Database :0000" style="image;html=1;image=img/lib/clip_art/computers/Database_128x128.png" parent="UDgORrIAMkUc-_xgwFes-16" vertex="1">
          <mxGeometry x="205.5" y="140" width="69" height="60" as="geometry" />
        </mxCell>
        <mxCell id="UDgORrIAMkUc-_xgwFes-21" value="License Database :0000" style="image;html=1;image=img/lib/clip_art/computers/Database_128x128.png" parent="UDgORrIAMkUc-_xgwFes-16" vertex="1">
          <mxGeometry x="411.5" y="140" width="69" height="60" as="geometry" />
        </mxCell>
        <mxCell id="UDgORrIAMkUc-_xgwFes-26" value="" style="sketch=0;points=[[0,0,0],[0.25,0,0],[0.5,0,0],[0.75,0,0],[1,0,0],[0,1,0],[0.25,1,0],[0.5,1,0],[0.75,1,0],[1,1,0],[0,0.25,0],[0,0.5,0],[0,0.75,0],[1,0.25,0],[1,0.5,0],[1,0.75,0]];outlineConnect=0;fontColor=#232F3E;fillColor=#8C4FFF;strokeColor=#ffffff;dashed=0;verticalLabelPosition=bottom;verticalAlign=top;align=center;html=1;fontSize=12;fontStyle=0;aspect=fixed;shape=mxgraph.aws4.resourceIcon;resIcon=mxgraph.aws4.managed_streaming_for_kafka;" parent="UDgORrIAMkUc-_xgwFes-16" vertex="1">
          <mxGeometry x="422" y="240" width="48" height="48" as="geometry" />
        </mxCell>
        <mxCell id="UDgORrIAMkUc-_xgwFes-27" value="License Database :0000" style="image;html=1;image=img/lib/clip_art/computers/Database_128x128.png" parent="UDgORrIAMkUc-_xgwFes-16" vertex="1">
          <mxGeometry x="550" y="320" width="69" height="60" as="geometry" />
        </mxCell>
        <mxCell id="UDgORrIAMkUc-_xgwFes-28" value="Audit-Service" style="rounded=1;whiteSpace=wrap;html=1;" parent="UDgORrIAMkUc-_xgwFes-16" vertex="1">
          <mxGeometry x="324" y="320" width="120" height="60" as="geometry" />
        </mxCell>
        <mxCell id="UDgORrIAMkUc-_xgwFes-29" value="Customer-Command-Service" style="rounded=1;whiteSpace=wrap;html=1;" parent="UDgORrIAMkUc-_xgwFes-16" vertex="1">
          <mxGeometry x="180" y="40" width="120" height="60" as="geometry" />
        </mxCell>
        <mxCell id="UDgORrIAMkUc-_xgwFes-31" value="License-Query-Service" style="rounded=1;whiteSpace=wrap;html=1;" parent="UDgORrIAMkUc-_xgwFes-16" vertex="1">
          <mxGeometry x="520" y="40" width="120" height="60" as="geometry" />
        </mxCell>
        <mxCell id="UDgORrIAMkUc-_xgwFes-32" value="Customer-Query-Service" style="rounded=1;whiteSpace=wrap;html=1;fillStyle=auto;" parent="UDgORrIAMkUc-_xgwFes-16" vertex="1">
          <mxGeometry x="50" y="40" width="120" height="60" as="geometry" />
        </mxCell>
        <mxCell id="UDgORrIAMkUc-_xgwFes-33" value="Customer Database :0000" style="image;html=1;image=img/lib/clip_art/computers/Database_128x128.png" parent="UDgORrIAMkUc-_xgwFes-16" vertex="1">
          <mxGeometry x="75.5" y="320" width="69" height="60" as="geometry" />
        </mxCell>
        <mxCell id="UDgORrIAMkUc-_xgwFes-45" value="" style="sketch=0;points=[[0,0,0],[0.25,0,0],[0.5,0,0],[0.75,0,0],[1,0,0],[0,1,0],[0.25,1,0],[0.5,1,0],[0.75,1,0],[1,1,0],[0,0.25,0],[0,0.5,0],[0,0.75,0],[1,0.25,0],[1,0.5,0],[1,0.75,0]];outlineConnect=0;fontColor=#232F3E;fillColor=#8C4FFF;strokeColor=#ffffff;dashed=0;verticalLabelPosition=bottom;verticalAlign=top;align=center;html=1;fontSize=12;fontStyle=0;aspect=fixed;shape=mxgraph.aws4.resourceIcon;resIcon=mxgraph.aws4.managed_streaming_for_kafka;" parent="UDgORrIAMkUc-_xgwFes-16" vertex="1">
          <mxGeometry x="216" y="240" width="48" height="48" as="geometry" />
        </mxCell>
        <mxCell id="UDgORrIAMkUc-_xgwFes-46" value="User-Service" style="rounded=1;whiteSpace=wrap;html=1;" parent="UDgORrIAMkUc-_xgwFes-16" vertex="1">
          <mxGeometry x="640" y="130" width="120" height="60" as="geometry" />
        </mxCell>
        <mxCell id="UDgORrIAMkUc-_xgwFes-47" value="User Database :0000" style="image;html=1;image=img/lib/clip_art/computers/Database_128x128.png" parent="UDgORrIAMkUc-_xgwFes-16" vertex="1">
          <mxGeometry x="665.5" y="220" width="69" height="60" as="geometry" />
        </mxCell>
        <mxCell id="UDgORrIAMkUc-_xgwFes-50" value="Licenses-Command-Service" style="rounded=1;whiteSpace=wrap;html=1;" parent="UDgORrIAMkUc-_xgwFes-16" vertex="1">
          <mxGeometry x="390" y="40" width="120" height="60" as="geometry" />
        </mxCell>
        <mxCell id="UDgORrIAMkUc-_xgwFes-51" value="Licenses-Command-Service" style="rounded=1;whiteSpace=wrap;html=1;" parent="UDgORrIAMkUc-_xgwFes-16" vertex="1">
          <mxGeometry x="380" y="30" width="120" height="60" as="geometry" />
        </mxCell>
        <mxCell id="UDgORrIAMkUc-_xgwFes-53" value="License-Query-Service" style="rounded=1;whiteSpace=wrap;html=1;" parent="UDgORrIAMkUc-_xgwFes-16" vertex="1">
          <mxGeometry x="530" y="30" width="120" height="60" as="geometry" />
        </mxCell>
        <mxCell id="UDgORrIAMkUc-_xgwFes-63" value="" style="endArrow=none;dashed=1;html=1;rounded=0;strokeColor=#006600;strokeWidth=2;" parent="UDgORrIAMkUc-_xgwFes-16" edge="1">
          <mxGeometry width="50" height="50" relative="1" as="geometry">
            <mxPoint x="60" y="10" as="sourcePoint" />
            <mxPoint x="750" y="10" as="targetPoint" />
          </mxGeometry>
        </mxCell>
        <mxCell id="UDgORrIAMkUc-_xgwFes-64" value="" style="endArrow=none;dashed=1;html=1;rounded=0;strokeColor=#006600;strokeWidth=2;" parent="UDgORrIAMkUc-_xgwFes-16" edge="1">
          <mxGeometry width="50" height="50" relative="1" as="geometry">
            <mxPoint x="60" y="10" as="sourcePoint" />
            <mxPoint x="60" y="40" as="targetPoint" />
          </mxGeometry>
        </mxCell>
        <mxCell id="UDgORrIAMkUc-_xgwFes-65" value="" style="endArrow=none;dashed=1;html=1;rounded=0;strokeColor=#006600;strokeWidth=2;" parent="UDgORrIAMkUc-_xgwFes-16" edge="1">
          <mxGeometry width="50" height="50" relative="1" as="geometry">
            <mxPoint x="190" y="10" as="sourcePoint" />
            <mxPoint x="190" y="40" as="targetPoint" />
          </mxGeometry>
        </mxCell>
        <mxCell id="UDgORrIAMkUc-_xgwFes-66" value="" style="endArrow=none;dashed=1;html=1;rounded=0;strokeColor=#006600;strokeWidth=2;" parent="UDgORrIAMkUc-_xgwFes-16" edge="1">
          <mxGeometry width="50" height="50" relative="1" as="geometry">
            <mxPoint x="490" y="10" as="sourcePoint" />
            <mxPoint x="490" y="40" as="targetPoint" />
          </mxGeometry>
        </mxCell>
        <mxCell id="UDgORrIAMkUc-_xgwFes-67" value="" style="endArrow=none;dashed=1;html=1;rounded=0;strokeColor=#006600;strokeWidth=2;" parent="UDgORrIAMkUc-_xgwFes-16" edge="1">
          <mxGeometry width="50" height="50" relative="1" as="geometry">
            <mxPoint x="640" y="10" as="sourcePoint" />
            <mxPoint x="640" y="40" as="targetPoint" />
          </mxGeometry>
        </mxCell>
        <mxCell id="UDgORrIAMkUc-_xgwFes-69" value="" style="endArrow=none;dashed=1;html=1;rounded=0;strokeColor=#006600;strokeWidth=2;entryX=0.913;entryY=-0.007;entryDx=0;entryDy=0;entryPerimeter=0;" parent="UDgORrIAMkUc-_xgwFes-16" target="UDgORrIAMkUc-_xgwFes-46" edge="1">
          <mxGeometry width="50" height="50" relative="1" as="geometry">
            <mxPoint x="750" y="10" as="sourcePoint" />
            <mxPoint x="750" y="50" as="targetPoint" />
          </mxGeometry>
        </mxCell>
        <mxCell id="UDgORrIAMkUc-_xgwFes-78" value="" style="endArrow=classic;html=1;rounded=0;exitX=0.461;exitY=1.01;exitDx=0;exitDy=0;exitPerimeter=0;entryX=0.5;entryY=0;entryDx=0;entryDy=0;strokeWidth=2;" parent="UDgORrIAMkUc-_xgwFes-16" source="UDgORrIAMkUc-_xgwFes-50" target="UDgORrIAMkUc-_xgwFes-21" edge="1">
          <mxGeometry width="50" height="50" relative="1" as="geometry">
            <mxPoint x="530" y="200" as="sourcePoint" />
            <mxPoint x="580" y="150" as="targetPoint" />
          </mxGeometry>
        </mxCell>
        <mxCell id="UDgORrIAMkUc-_xgwFes-80" value="" style="endArrow=classic;html=1;rounded=0;dashed=1;entryX=0;entryY=0.5;entryDx=0;entryDy=0;entryPerimeter=0;strokeWidth=2;strokeColor=#A280FF;" parent="UDgORrIAMkUc-_xgwFes-16" target="UDgORrIAMkUc-_xgwFes-26" edge="1">
          <mxGeometry width="50" height="50" relative="1" as="geometry">
            <mxPoint x="446" y="120" as="sourcePoint" />
            <mxPoint x="330" y="180" as="targetPoint" />
            <Array as="points">
              <mxPoint x="390" y="120" />
              <mxPoint x="390" y="264" />
            </Array>
          </mxGeometry>
        </mxCell>
        <mxCell id="UDgORrIAMkUc-_xgwFes-81" value="" style="endArrow=classic;html=1;rounded=0;exitX=0.375;exitY=1.042;exitDx=0;exitDy=0;exitPerimeter=0;entryX=0.548;entryY=-0.007;entryDx=0;entryDy=0;entryPerimeter=0;strokeWidth=2;strokeColor=#A280FF;dashed=1;" parent="UDgORrIAMkUc-_xgwFes-16" source="UDgORrIAMkUc-_xgwFes-26" target="UDgORrIAMkUc-_xgwFes-28" edge="1">
          <mxGeometry width="50" height="50" relative="1" as="geometry">
            <mxPoint x="470" y="350" as="sourcePoint" />
            <mxPoint x="520" y="300" as="targetPoint" />
            <Array as="points">
              <mxPoint x="440" y="300" />
              <mxPoint x="390" y="300" />
            </Array>
          </mxGeometry>
        </mxCell>
        <mxCell id="UDgORrIAMkUc-_xgwFes-82" value="" style="endArrow=classic;html=1;rounded=0;exitX=1;exitY=0.5;exitDx=0;exitDy=0;entryX=0;entryY=0.5;entryDx=0;entryDy=0;strokeWidth=2;dashed=1;strokeColor=#A280FF;" parent="UDgORrIAMkUc-_xgwFes-16" source="UDgORrIAMkUc-_xgwFes-28" target="UDgORrIAMkUc-_xgwFes-27" edge="1">
          <mxGeometry width="50" height="50" relative="1" as="geometry">
            <mxPoint x="460" y="370" as="sourcePoint" />
            <mxPoint x="510" y="320" as="targetPoint" />
          </mxGeometry>
        </mxCell>
        <mxCell id="UDgORrIAMkUc-_xgwFes-84" value="&lt;span style=&quot;border-color: var(--border-color); color: rgb(35, 47, 62); text-align: center; font-size: 9px;&quot;&gt;&lt;font style=&quot;font-size: 9px;&quot;&gt;KAFKA + PATRON CQRS&lt;/font&gt;&lt;/span&gt;" style="text;strokeColor=none;fillColor=none;align=left;verticalAlign=middle;spacingLeft=4;spacingRight=4;overflow=hidden;points=[[0,0.5],[1,0.5]];portConstraint=eastwest;rotatable=0;whiteSpace=wrap;html=1;fontSize=9;fontStyle=1" parent="UDgORrIAMkUc-_xgwFes-16" vertex="1">
          <mxGeometry x="470" y="250" width="80" height="30" as="geometry" />
        </mxCell>
        <mxCell id="UDgORrIAMkUc-_xgwFes-85" value="" style="endArrow=classic;html=1;rounded=0;exitX=0.556;exitY=0.971;exitDx=0;exitDy=0;exitPerimeter=0;entryX=0.553;entryY=-0.052;entryDx=0;entryDy=0;entryPerimeter=0;strokeWidth=2;" parent="UDgORrIAMkUc-_xgwFes-16" source="UDgORrIAMkUc-_xgwFes-31" target="UDgORrIAMkUc-_xgwFes-27" edge="1">
          <mxGeometry width="50" height="50" relative="1" as="geometry">
            <mxPoint x="560" y="180" as="sourcePoint" />
            <mxPoint x="610" y="130" as="targetPoint" />
          </mxGeometry>
        </mxCell>
        <mxCell id="UDgORrIAMkUc-_xgwFes-86" value="" style="endArrow=classic;html=1;rounded=0;exitX=0.5;exitY=1;exitDx=0;exitDy=0;strokeWidth=2;" parent="UDgORrIAMkUc-_xgwFes-16" source="UDgORrIAMkUc-_xgwFes-46" target="UDgORrIAMkUc-_xgwFes-47" edge="1">
          <mxGeometry width="50" height="50" relative="1" as="geometry">
            <mxPoint x="670" y="120" as="sourcePoint" />
            <mxPoint x="720" y="70" as="targetPoint" />
          </mxGeometry>
        </mxCell>
        <mxCell id="UDgORrIAMkUc-_xgwFes-87" value="" style="endArrow=classic;html=1;rounded=0;exitX=0.5;exitY=1;exitDx=0;exitDy=0;strokeWidth=2;" parent="UDgORrIAMkUc-_xgwFes-16" source="UDgORrIAMkUc-_xgwFes-29" target="UDgORrIAMkUc-_xgwFes-20" edge="1">
          <mxGeometry width="50" height="50" relative="1" as="geometry">
            <mxPoint x="110" y="200" as="sourcePoint" />
            <mxPoint x="160" y="150" as="targetPoint" />
          </mxGeometry>
        </mxCell>
        <mxCell id="UDgORrIAMkUc-_xgwFes-88" value="" style="endArrow=classic;html=1;rounded=0;strokeColor=#A280FF;strokeWidth=2;dashed=1;" parent="UDgORrIAMkUc-_xgwFes-16" target="UDgORrIAMkUc-_xgwFes-45" edge="1">
          <mxGeometry width="50" height="50" relative="1" as="geometry">
            <mxPoint x="240" y="120" as="sourcePoint" />
            <mxPoint x="270" y="270" as="targetPoint" />
            <Array as="points">
              <mxPoint x="330" y="120" />
              <mxPoint x="330" y="264" />
            </Array>
          </mxGeometry>
        </mxCell>
        <mxCell id="UDgORrIAMkUc-_xgwFes-90" value="" style="endArrow=classic;html=1;rounded=0;strokeColor=#A280FF;strokeWidth=2;dashed=1;entryX=0.25;entryY=0;entryDx=0;entryDy=0;exitX=0.5;exitY=1.042;exitDx=0;exitDy=0;exitPerimeter=0;" parent="UDgORrIAMkUc-_xgwFes-16" source="UDgORrIAMkUc-_xgwFes-45" target="UDgORrIAMkUc-_xgwFes-28" edge="1">
          <mxGeometry width="50" height="50" relative="1" as="geometry">
            <mxPoint x="240" y="300" as="sourcePoint" />
            <mxPoint x="300" y="310" as="targetPoint" />
            <Array as="points">
              <mxPoint x="240" y="300" />
              <mxPoint x="354" y="300" />
            </Array>
          </mxGeometry>
        </mxCell>
        <mxCell id="UDgORrIAMkUc-_xgwFes-91" value="" style="endArrow=classic;html=1;rounded=0;exitX=0;exitY=0.5;exitDx=0;exitDy=0;strokeWidth=2;strokeColor=#A280FF;dashed=1;" parent="UDgORrIAMkUc-_xgwFes-16" source="UDgORrIAMkUc-_xgwFes-28" target="UDgORrIAMkUc-_xgwFes-33" edge="1">
          <mxGeometry width="50" height="50" relative="1" as="geometry">
            <mxPoint x="320" y="350" as="sourcePoint" />
            <mxPoint x="260" y="260" as="targetPoint" />
          </mxGeometry>
        </mxCell>
        <mxCell id="UDgORrIAMkUc-_xgwFes-92" value="&lt;span style=&quot;border-color: var(--border-color); color: rgb(35, 47, 62); text-align: center; font-size: 9px;&quot;&gt;&lt;font style=&quot;font-size: 9px;&quot;&gt;KAFKA + PATRON CQRS&lt;/font&gt;&lt;/span&gt;" style="text;strokeColor=none;fillColor=none;align=left;verticalAlign=middle;spacingLeft=4;spacingRight=4;overflow=hidden;points=[[0,0.5],[1,0.5]];portConstraint=eastwest;rotatable=0;whiteSpace=wrap;html=1;fontSize=9;fontStyle=1" parent="UDgORrIAMkUc-_xgwFes-16" vertex="1">
          <mxGeometry x="136" y="249" width="80" height="30" as="geometry" />
        </mxCell>
        <mxCell id="UDgORrIAMkUc-_xgwFes-94" value="" style="endArrow=classic;html=1;rounded=0;exitX=0.5;exitY=1;exitDx=0;exitDy=0;entryX=0.5;entryY=0;entryDx=0;entryDy=0;strokeWidth=2;" parent="UDgORrIAMkUc-_xgwFes-16" source="UDgORrIAMkUc-_xgwFes-32" target="UDgORrIAMkUc-_xgwFes-33" edge="1">
          <mxGeometry width="50" height="50" relative="1" as="geometry">
            <mxPoint x="80" y="210" as="sourcePoint" />
            <mxPoint x="130" y="160" as="targetPoint" />
          </mxGeometry>
        </mxCell>
        <mxCell id="UDgORrIAMkUc-_xgwFes-54" value="" style="endArrow=none;dashed=1;html=1;rounded=0;strokeColor=#006600;strokeWidth=2;" parent="UDgORrIAMkUc-_xgwFes-1" source="UDgORrIAMkUc-_xgwFes-6" target="UDgORrIAMkUc-_xgwFes-5" edge="1">
          <mxGeometry width="50" height="50" relative="1" as="geometry">
            <mxPoint x="340" y="280" as="sourcePoint" />
            <mxPoint x="390" y="230" as="targetPoint" />
          </mxGeometry>
        </mxCell>
        <mxCell id="UDgORrIAMkUc-_xgwFes-74" value="" style="endArrow=classic;html=1;rounded=0;entryX=0.667;entryY=0;entryDx=0;entryDy=0;entryPerimeter=0;exitX=0.48;exitY=1;exitDx=0;exitDy=0;exitPerimeter=0;strokeWidth=2;" parent="UDgORrIAMkUc-_xgwFes-1" source="UDgORrIAMkUc-_xgwFes-61" target="UDgORrIAMkUc-_xgwFes-51" edge="1">
          <mxGeometry width="50" height="50" relative="1" as="geometry">
            <mxPoint x="430" y="300" as="sourcePoint" />
            <mxPoint x="480" y="250" as="targetPoint" />
          </mxGeometry>
        </mxCell>
        <mxCell id="UDgORrIAMkUc-_xgwFes-75" value="" style="endArrow=classic;html=1;rounded=0;entryX=0.436;entryY=0.004;entryDx=0;entryDy=0;entryPerimeter=0;strokeWidth=2;exitX=0.5;exitY=1;exitDx=0;exitDy=0;" parent="UDgORrIAMkUc-_xgwFes-1" source="UDgORrIAMkUc-_xgwFes-61" target="UDgORrIAMkUc-_xgwFes-53" edge="1">
          <mxGeometry width="50" height="50" relative="1" as="geometry">
            <mxPoint x="530" y="240" as="sourcePoint" />
            <mxPoint x="620" y="250" as="targetPoint" />
          </mxGeometry>
        </mxCell>
        <mxCell id="UDgORrIAMkUc-_xgwFes-76" value="" style="endArrow=classic;html=1;rounded=0;entryX=0.583;entryY=0;entryDx=0;entryDy=0;entryPerimeter=0;strokeWidth=2;" parent="UDgORrIAMkUc-_xgwFes-1" target="UDgORrIAMkUc-_xgwFes-29" edge="1">
          <mxGeometry width="50" height="50" relative="1" as="geometry">
            <mxPoint x="260" y="260" as="sourcePoint" />
            <mxPoint x="360" y="260" as="targetPoint" />
          </mxGeometry>
        </mxCell>
        <mxCell id="UDgORrIAMkUc-_xgwFes-77" value="" style="endArrow=classic;html=1;rounded=0;exitX=0.5;exitY=1;exitDx=0;exitDy=0;entryX=0.817;entryY=0.011;entryDx=0;entryDy=0;entryPerimeter=0;strokeWidth=2;" parent="UDgORrIAMkUc-_xgwFes-1" source="UDgORrIAMkUc-_xgwFes-13" target="UDgORrIAMkUc-_xgwFes-32" edge="1">
          <mxGeometry width="50" height="50" relative="1" as="geometry">
            <mxPoint x="270" y="320" as="sourcePoint" />
            <mxPoint x="320" y="270" as="targetPoint" />
          </mxGeometry>
        </mxCell>
        <mxCell id="UDgORrIAMkUc-_xgwFes-3" value="Cloud&lt;br&gt;Gatewall" style="rounded=1;whiteSpace=wrap;html=1;fontStyle=1;fillColor=#dae8fc;strokeColor=#6c8ebf;strokeWidth=2;" parent="1" vertex="1">
          <mxGeometry x="350" y="40" width="120" height="60" as="geometry" />
        </mxCell>
        <mxCell id="UDgORrIAMkUc-_xgwFes-7" value="Servicios UX" style="swimlane;horizontal=0;whiteSpace=wrap;html=1;" parent="1" vertex="1">
          <mxGeometry x="120" y="140" width="590" height="130" as="geometry" />
        </mxCell>
        <mxCell id="UDgORrIAMkUc-_xgwFes-10" value="UX-DriverLicense Magement&amp;nbsp;" style="rounded=1;whiteSpace=wrap;html=1;" parent="UDgORrIAMkUc-_xgwFes-7" vertex="1">
          <mxGeometry x="340" y="40" width="120" height="60" as="geometry" />
        </mxCell>
        <mxCell id="UDgORrIAMkUc-_xgwFes-11" value="UX-DriverLicense Magement&amp;nbsp;" style="rounded=1;whiteSpace=wrap;html=1;" parent="UDgORrIAMkUc-_xgwFes-7" vertex="1">
          <mxGeometry x="330" y="30" width="120" height="60" as="geometry" />
        </mxCell>
        <mxCell id="UDgORrIAMkUc-_xgwFes-71" value="" style="endArrow=classic;html=1;rounded=0;entryX=0.007;entryY=0.167;entryDx=0;entryDy=0;entryPerimeter=0;strokeWidth=2;" parent="UDgORrIAMkUc-_xgwFes-7" target="UDgORrIAMkUc-_xgwFes-11" edge="1">
          <mxGeometry width="50" height="50" relative="1" as="geometry">
            <mxPoint x="290" as="sourcePoint" />
            <mxPoint x="320" y="40" as="targetPoint" />
            <Array as="points">
              <mxPoint x="310" y="20" />
            </Array>
          </mxGeometry>
        </mxCell>
        <mxCell id="UDgORrIAMkUc-_xgwFes-70" value="" style="endArrow=classic;html=1;rounded=0;exitX=0.5;exitY=1;exitDx=0;exitDy=0;strokeWidth=2;" parent="1" source="UDgORrIAMkUc-_xgwFes-3" edge="1">
          <mxGeometry width="50" height="50" relative="1" as="geometry">
            <mxPoint x="240" y="130" as="sourcePoint" />
            <mxPoint x="410" y="140" as="targetPoint" />
          </mxGeometry>
        </mxCell>
        <mxCell id="UDgORrIAMkUc-_xgwFes-72" value="" style="endArrow=classic;html=1;rounded=0;exitX=0.303;exitY=1.027;exitDx=0;exitDy=0;exitPerimeter=0;entryX=0.132;entryY=-0.013;entryDx=0;entryDy=0;entryPerimeter=0;strokeWidth=2;" parent="1" source="UDgORrIAMkUc-_xgwFes-10" target="UDgORrIAMkUc-_xgwFes-61" edge="1">
          <mxGeometry width="50" height="50" relative="1" as="geometry">
            <mxPoint x="330" y="270" as="sourcePoint" />
            <mxPoint x="380" y="220" as="targetPoint" />
          </mxGeometry>
        </mxCell>
        <mxCell id="UDgORrIAMkUc-_xgwFes-95" value="Authentication Server JWT" style="ellipse;whiteSpace=wrap;html=1;aspect=fixed;fillColor=#fff2cc;strokeColor=#d6b656;fillStyle=auto;strokeWidth=2;fontStyle=1" parent="1" vertex="1">
          <mxGeometry x="670" y="30" width="80" height="80" as="geometry" />
        </mxCell>
        <mxCell id="UDgORrIAMkUc-_xgwFes-96" value="" style="endArrow=classic;html=1;rounded=0;exitX=0;exitY=0.5;exitDx=0;exitDy=0;entryX=1;entryY=0.5;entryDx=0;entryDy=0;strokeWidth=2;" parent="1" source="UDgORrIAMkUc-_xgwFes-95" target="UDgORrIAMkUc-_xgwFes-3" edge="1">
          <mxGeometry width="50" height="50" relative="1" as="geometry">
            <mxPoint x="360" y="290" as="sourcePoint" />
            <mxPoint x="410" y="240" as="targetPoint" />
          </mxGeometry>
        </mxCell>
        <mxCell id="XHMKOdGW5oOb0kkLyp25-1" value="&lt;h1 style=&quot;margin-top: 0px;&quot;&gt;Licenias MTC&lt;/h1&gt;&lt;p&gt;API para la gestion de licencias de Ministerio de Transportes y Comunicaciones&lt;/p&gt;" style="text;html=1;whiteSpace=wrap;overflow=hidden;rounded=0;" vertex="1" parent="1">
          <mxGeometry x="10" y="10" width="254" height="100" as="geometry" />
        </mxCell>
      </root>
    </mxGraphModel>
  </diagram>
</mxfile>
